<?xml version="1.0" encoding="utf-8"?>
<!-- Generator: Adobe Illustrator 18.0.0, SVG Export Plug-In . SVG Version: 6.00 Build 0)  -->
<!DOCTYPE svg PUBLIC "-//W3C//DTD SVG 1.1//EN" "http://www.w3.org/Graphics/SVG/1.1/DTD/svg11.dtd">
<svg version="1.1" id="Layer_1" xmlns="http://www.w3.org/2000/svg" xmlns:xlink="http://www.w3.org/1999/xlink" x="0px" y="0px"
	 viewBox="-143.4 250.9 71.4 63.4" enable-background="new -143.4 250.9 71.4 63.4" xml:space="preserve">
<path fill="#147DD3" d="M-74.6,261.8c-3.5-6.9-9.9-10.9-17.6-10.9l-0.1,0c-7,0-11.8,3.4-14.6,6.3l-0.7,0.7l-0.7-0.7
	c-2.8-2.8-7.6-6.2-14.6-6.3l-0.1,0c-7.7,0-14.1,4-17.6,10.9c-4.4,8.6-3.2,20,2.9,28.3c6.6,8.9,14.3,13.9,24.2,20.3l0.4,0.3
	c1.3,0.8,2.6,1.7,4,2.6l1.5,1l1.5-1c1.5-1,3-2,4.5-2.9c9.9-6.3,17.6-11.3,24.2-20.3C-71.4,281.9-70.3,270.5-74.6,261.8z
	 M-123.2,252.8l0.1,0c8.2,0,13.1,5,15.2,7.9l0.1,0.2l0.1-0.2c2.2-2.9,7-7.9,15.2-7.9l0.1,0c7,0,12.8,3.6,16,9.9
	c4.1,8,3,18.7-2.7,26.4c-6.4,8.7-13.6,13.3-23.7,19.8c-1.4,0.9-2.9,1.9-4.5,2.9l-0.5,0.4l-0.5-0.4c-1.4-0.9-2.8-1.8-4.1-2.7
	l-0.4-0.2c-10.1-6.5-17.4-11.2-23.7-19.8c-5.7-7.8-6.8-18.4-2.7-26.4C-135.9,256.4-130.1,252.8-123.2,252.8z"/>
</svg>
