<?xml version="1.0" encoding="utf-8"?>
<!-- Generator: Adobe Illustrator 18.0.0, SVG Export Plug-In . SVG Version: 6.00 Build 0)  -->
<!DOCTYPE svg PUBLIC "-//W3C//DTD SVG 1.1//EN" "http://www.w3.org/Graphics/SVG/1.1/DTD/svg11.dtd">
<svg version="1.1" id="Layer_1" xmlns="http://www.w3.org/2000/svg" xmlns:xlink="http://www.w3.org/1999/xlink" x="0px" y="0px"
	 viewBox="-143.8 246.7 71.6 71.6" enable-background="new -143.8 246.7 71.6 71.6" xml:space="preserve">
<path fill="#147DD3" d="M-109.2,286.1c-0.4,0-0.7-0.1-1-0.4c-0.3-0.3-0.4-0.6-0.4-1l-0.1-22.5c0-0.8,0.7-1.2,1.3-1.2
	c0.3,0,1.2,0.1,1.2,1.2v20.3l17.3-7.7c0.2-0.1,0.5-0.2,0.7-0.2c0.6,0,1,0.5,1.1,1c0.1,0.4,0,0.9-0.7,1.3l-18.7,9.1
	C-108.7,286-108.9,286.1-109.2,286.1z"/>
<path fill="#147DD3" d="M-108,318.2c-19.7,0-35.8-16.1-35.8-35.8c0-19.7,16.1-35.8,35.8-35.8c19.7,0,35.8,16.1,35.8,35.8
	C-72.2,302.2-88.3,318.2-108,318.2z M-108,248.9c-18.5,0-33.5,15-33.5,33.5s15,33.5,33.5,33.5c18.5,0,33.5-15,33.5-33.5
	S-89.5,248.9-108,248.9z"/>
<path fill="#147DD3" d="M-108,282.4"/>
</svg>
