<?xml version="1.0" encoding="utf-8"?>
<!-- Generator: Adobe Illustrator 18.0.0, SVG Export Plug-In . SVG Version: 6.00 Build 0)  -->
<!DOCTYPE svg PUBLIC "-//W3C//DTD SVG 1.1//EN" "http://www.w3.org/Graphics/SVG/1.1/DTD/svg11.dtd">
<svg version="1.1" id="Layer_1" xmlns="http://www.w3.org/2000/svg" xmlns:xlink="http://www.w3.org/1999/xlink" x="0px" y="0px"
	 viewBox="-140.2 263.9 65 35.7" enable-background="new -140.2 263.9 65 35.7" xml:space="preserve">
<path fill="#147DD3" d="M-75.4,291.1c-0.8-2.4-4.2-3.9-6.1-4.7c-0.2-0.1-0.4-0.2-0.7-0.3c-1.1-0.4-2.7-1-2.9-1.9
	c-0.3-1.3,0.5-2.3,1.2-3.3c0.3-0.3,0.6-0.7,0.8-1.2c0.9-1.5,1.5-3.5,1.6-5c0.2-2.7-0.4-5-1.9-6.5c-1.3-1.4-3-2.1-5.1-2.1
	c-0.4,0-0.7,0-1.1,0.1c-3.5,0.4-5.9,3-6.1,6.7c-0.2,2.9,0.6,5.6,2.5,8.3c0.1,0.1,0.2,0.3,0.4,0.5c0.5,0.6,0.9,1.2,0.8,2
	c-0.1,1.1-1.2,1.5-2.1,1.9l-0.3,0.1c-1,0.4-2.1,1-2.7,1.4l-1,0.6l-0.3-0.2c-0.3-0.1-0.6-0.3-0.9-0.4l-0.2-0.1
	c-0.2-0.1-0.5-0.2-0.8-0.3c-1.2-0.4-3.1-1.1-3.3-2.2c-0.4-1.4,0.5-2.6,1.4-3.8c0.3-0.4,0.7-0.9,0.9-1.3c1-1.7,1.7-4,1.8-5.7
	c0.3-3.1-0.5-5.7-2.1-7.5c-1.4-1.6-3.5-2.4-5.9-2.4c-0.4,0-0.8,0-1.3,0.1c-4,0.5-6.7,3.4-7,7.7c-0.2,3.4,0.7,6.5,2.9,9.4
	c0.1,0.2,0.3,0.4,0.4,0.5c0.6,0.7,1,1.3,0.9,2.3c-0.1,1.3-1.4,1.7-2.3,2.1l-0.4,0.1c-0.7,0.3-1.5,0.7-2.5,1.2l-0.3,0.2l-0.4-0.2
	c-0.8-0.4-1.6-0.8-2.2-1.1c-0.2-0.1-0.4-0.2-0.7-0.3c-1.1-0.4-2.7-1-2.9-1.9c-0.3-1.3,0.5-2.3,1.2-3.3c0.3-0.4,0.6-0.8,0.8-1.1
	c0.9-1.5,1.5-3.5,1.6-5c0.2-2.7-0.4-5-1.9-6.5c-1.3-1.4-3-2.1-5.1-2.1c-0.4,0-0.7,0-1.1,0.1c-3.5,0.4-5.9,3-6.1,6.7
	c-0.2,2.9,0.6,5.7,2.5,8.3c0.1,0.2,0.2,0.3,0.4,0.5c0.5,0.6,0.9,1.2,0.8,2c-0.1,1.1-1.2,1.5-2.1,1.9l-0.3,0.1c-1,0.4-2.1,1-2.7,1.4
	l-0.1,0.1c-2,1.1-4.1,2.4-4.5,4.1c-0.3,1.2-0.2,2.2,0.3,3.1c1,1.6,3.4,2.2,5.2,2.5c2.5,0.5,5.3,0.5,7.8,0.5c1,0,3,0,5-0.2l0.2,0l0,0
	l0.1,0.1c0.1,0.1,0.2,0.1,0.2,0.2c0.2,0.1,0.4,0.3,0.6,0.4c1.3,0.7,2.9,1,3.9,1.2c2.9,0.5,6.1,0.6,8.9,0.6c2.8,0,9.5,0,13-1.8
	c0.2-0.1,0.5-0.3,0.7-0.4c0.1-0.1,0.1-0.1,0.3-0.2l0.3,0c1.9,0.1,3.7,0.2,4.9,0.2c5.1,0,12-0.3,13.2-3.4
	C-75.1,293.1-75.2,291.6-75.4,291.1z M-88.6,296.6c-0.3,0-0.8,0-1.3,0c-0.6,0-1.3,0-2,0c-0.4,0-0.7,0-1.1,0l-0.2,0l-0.1,0l0.2-0.2
	c0,0,0.1-0.1,0.1-0.2c0.1-0.1,0.2-0.3,0.2-0.5c0.4-1,0.2-2.7,0-3.4c0-0.1-0.1-0.2-0.1-0.3c-0.3-0.8-0.8-1.5-1.7-2.2
	c-0.1-0.1-0.5-0.4-0.5-0.4c-0.2-0.2-0.5-0.3-0.8-0.6c-0.2-0.1-0.5-0.3-0.7-0.4l-0.6-0.3l-0.2-0.1l0.6-0.4c0.5-0.3,1.6-0.9,2.6-1.3
	l0.3-0.1c1-0.4,2.4-0.9,2.6-2.5c0.1-1.2-0.5-1.9-1.1-2.7c-0.1-0.1-0.2-0.2-0.3-0.4c-1.8-2.5-2.6-5-2.4-7.7c0.2-3.3,2.3-5.6,5.4-6
	c0.4,0,0.7-0.1,1-0.1c1.9,0,3.5,0.6,4.6,1.8c1.3,1.4,1.9,3.5,1.7,5.9c-0.1,1.4-0.7,3.2-1.5,4.6c-0.2,0.3-0.5,0.7-0.7,1.1
	c-0.8,1-1.8,2.3-1.4,4c0.3,1.3,2.1,2,3.4,2.4c0.2,0.1,0.5,0.2,0.6,0.2c1.7,0.8,4.9,2.2,5.6,4.2c0.2,0.5,0.3,1.7,0,2.4
	C-76.9,295.6-81.1,296.6-88.6,296.6z M-107.7,298.8c-2.7,0-5.9,0-8.7-0.6c-1-0.2-2.5-0.5-3.7-1.1c-0.2-0.1-0.4-0.2-0.6-0.3
	c-0.2-0.1-0.3-0.2-0.5-0.4c-0.3-0.3-0.5-0.5-0.6-0.7c-0.5-0.8-0.6-1.7-0.2-2.9c0.4-1.6,2.5-2.9,4.7-4.2l0.1-0.1c0,0,0.6-0.3,0.8-0.4
	c1-0.5,1.7-0.9,2.4-1.2l0.4-0.1c1.1-0.4,2.7-1,2.9-2.8c0.1-1.3-0.5-2.1-1.1-2.9c-0.1-0.2-0.2-0.3-0.4-0.5c-2.1-2.8-3-5.7-2.7-8.9
	c0.3-3.9,2.7-6.5,6.3-7c0.4,0,0.8-0.1,1.2-0.1c2.2,0,4,0.7,5.3,2.1c1.5,1.6,2.2,4,1.9,6.9c-0.1,1.6-0.8,3.7-1.7,5.4
	c-0.2,0.4-0.6,0.8-0.9,1.2c-0.9,1.2-2,2.6-1.5,4.4c0.4,1.4,2.4,2.2,3.8,2.7c0.3,0.1,0.5,0.2,0.8,0.3c0,0,0.7,0.3,1,0.4l0.5,0.2
	c0.2,0.1,0.3,0.1,0.5,0.2c2.6,1.3,4.1,2.6,4.5,4c0.2,0.5,0.3,2,0,2.8c-0.1,0.3-0.4,0.6-0.7,0.9c-0.1,0.1-0.3,0.2-0.5,0.3
	c-0.2,0.1-0.4,0.2-0.6,0.3C-98.4,298.8-104.9,298.8-107.7,298.8z M-129.4,283.8c0.1-1.2-0.4-1.9-1-2.6c-0.1-0.1-0.2-0.3-0.3-0.4
	c-1.8-2.5-2.6-5-2.4-7.7c0.2-3.3,2.3-5.6,5.4-6c0.4,0,0.7-0.1,1-0.1c1.9,0,3.5,0.6,4.6,1.8c1.3,1.4,1.9,3.5,1.7,5.9
	c-0.1,1.4-0.7,3.2-1.5,4.6c-0.2,0.3-0.5,0.7-0.7,1.1c-0.8,1-1.8,2.3-1.4,4c0.3,1.3,2.1,2,3.4,2.4c0.2,0.1,0.5,0.2,0.6,0.2
	c0.2,0.1,0.5,0.2,0.8,0.3c0.4,0.2,0.9,0.3,1.2,0.5l0.1,0.1l0,0l-0.2,0.1c-0.3,0.2-0.7,0.4-1.1,0.6l-0.1,0.1
	c-0.4,0.2-0.7,0.5-1.1,0.7l-0.1,0.1c-0.1,0-0.5,0.4-0.5,0.4c-1,0.8-1.6,1.6-1.8,2.4c0,0.1,0,0.1-0.1,0.2c-0.4,1.4-0.3,2.5,0.3,3.5
	c0,0.1,0.1,0.1,0.2,0.2l0.1,0.1l0,0.1l-0.2,0c-0.8,0-1.6,0.1-2.6,0.1l-1.7,0c-2.4,0-5.2,0-7.6-0.5c-1.6-0.3-3.8-0.8-4.6-2.2
	c-0.4-0.6-0.5-1.4-0.2-2.4c0.4-1.4,2.4-2.6,4.2-3.6l0.2-0.1c0.5-0.3,1.6-0.9,2.6-1.3l0.3-0.1C-131,285.9-129.5,285.4-129.4,283.8z"
	/>
</svg>
