<?xml version="1.0" encoding="utf-8"?>
<!-- Generator: Adobe Illustrator 18.0.0, SVG Export Plug-In . SVG Version: 6.00 Build 0)  -->
<!DOCTYPE svg PUBLIC "-//W3C//DTD SVG 1.1//EN" "http://www.w3.org/Graphics/SVG/1.1/DTD/svg11.dtd">
<svg version="1.1" id="Layer_1" xmlns="http://www.w3.org/2000/svg" xmlns:xlink="http://www.w3.org/1999/xlink" x="0px" y="0px"
	 viewBox="0 0 114.4 98.5" enable-background="new 0 0 114.4 98.5" xml:space="preserve">
<path fill-rule="evenodd" clip-rule="evenodd" fill="#2F7BBF" d="M113.9,33.1l-1.4-2.6c-2.1-3.8-4.3-7.8-6.5-11.7
	c-0.2-0.4-0.7-0.8-1-0.9c-8.4-3.2-16.8-6.4-25.3-9.6l-1.4-0.5c-6.5-2.5-13.1-5-19.6-7.5c-0.5-0.2-1-0.3-1.4-0.3
	c-0.5,0-1,0.1-1.5,0.3C48.4,3.1,41,5.9,33.7,8.7l-0.2,0.1c-8,3-16,6.1-23.9,9.1c-0.4,0.2-0.8,0.5-1,0.9c-2.7,4.7-5.3,9.5-8.2,14.7
	c-0.2,0.4-0.4,1-0.3,1.4c0.2,0.5,0.7,0.8,1.1,0.9l0.4,0.2c1.9,0.7,3.8,1.5,5.7,2.2c1.4,0.5,2.1,1.4,2.1,2.9c0,4.7,0,9.5,0,14.1
	l0,23.1c0,1.9,0,2,1.9,2.7l9.5,3.9c11,4.5,22,9,33,13.5c0.3,0.1,0.6,0.2,0.9,0.2c0.3,0,0.5,0,0.7-0.1c13.6-5,27.3-10.1,40.6-15
	l6.8-2.5c1.8-0.7,1.8-0.7,1.8-2.7l0-8c0-9.6,0-19.2,0-28.8c0-1.7,0.7-2.7,2.3-3.2c1.5-0.5,2.9-1.1,4.4-1.6c0.5-0.2,1.1-0.4,1.6-0.6
	c1.1-0.4,1.5-0.8,1.6-1.1C114.5,34.6,114.5,34.1,113.9,33.1z M11.9,76.6c0-8.6,0-17.3,0-25.9l0-8.3c0-0.2,0-0.3,0-0.6l0.1-1.9
	l33.2,12.8c0.6,0.2,1.1,0.4,1.4,0.4c0.4,0,0.7-0.1,1.4-1.4c0.9-1.6,1.7-3.1,2.6-4.7c0.1-0.3,1.7-3.3,2.4-4.5v52.5l-1.5-0.5l-0.3-0.1
	c-0.3-0.1-0.5-0.1-0.7-0.2l-11.6-4.8c-8.4-3.4-16.8-6.9-25.2-10.3C13.2,78.9,11.9,78.4,11.9,76.6z M52.7,37.9L46,50.2L3.2,33.8
	L10.2,21L52.7,37.9z M17.1,20.9c-0.2-0.1-2.9-1.2-3.9-1.6l22.4-8.5C42.3,8.2,49,5.7,55.8,3.1c0.5-0.2,1-0.3,1.5-0.3
	c0.4,0,0.8,0.1,1.1,0.2c12,4.5,24,9.1,36,13.7l2.3,0.9c0.3,0.1,0.5,0.2,0.8,0.4l0.5,0.2l2.5,1.2l-22.6,8.1
	c-7.1,2.6-14.2,5.1-21.3,7.7c-0.6,0.2-1.2,0.3-1.8,0.3c-0.7,0-1.3-0.1-2.1-0.4c-9.3-3.7-18.5-7.4-27.8-11.1L17.1,20.9z M58.4,94.5
	c-0.2,0.1-0.4,0.1-0.7,0.2l-0.3,0.1l-1.5,0.4V42.1l2,2.4l0.3,0.3c0.2,0.2,0.4,0.4,0.5,0.6c0.9,1.3,5.2,7.5,5.2,7.5
	c0.7,1,1.1,1.1,1.3,1.1c0.3,0,0.7-0.1,1.3-0.3l32.4-12.5c0.3-0.1,0.6-0.2,0.9-0.3l1.9-0.7l0.1,1.5l0,0.5c0,0.3,0,0.6,0,0.9l0,8.7
	c0,8.2,0,16.3,0,24.5c0,1.4-0.6,2.2-1.8,2.7c-10.5,3.9-21,7.8-31.6,11.6L58.4,94.5z M67.9,50.5c-0.5,0.2-0.8,0.3-1.2,0.3
	c-1.1,0-1.7-0.7-2-1.3c-1.7-2.5-3.4-5-5.2-7.6l-2.8-4.1l47.5-17.1l7.2,12.9l-1.2,0.5c0,0-4.2,1.6-5.3,2.1l-8.1,3.1
	C87,43.1,77.4,46.8,67.9,50.5z"/>
</svg>
